# xmcd
#
# Track frame offsets: 
#        150
#        36248
#        62435
#        81990
#        111272
#        141286
#        168332
#        193157
#        212538
#        242525
#        261476
#        281643
#        308018
#
# Disc length: 4657 seconds
#
# Revision: 6
# Processed by: cddbd v1.5.2PL0 Copyright (c) Steve Scherf et al.
# Submitted via: ExactAudioCopy v1.1
#
DISCID=bd122f0d
DTITLE=Various Artist - Hed Kandi Back To Love 03 05
DYEAR=2005
DGENRE=House
TTITLE0=Chante Moore - Loves Taken Over (Extended Vocal Version)
TTITLE1=Sounds Of Blackness - Im Going All The Way (Brixton Flavour Mi
TTITLE1=x)
TTITLE2=Absolute - Introduce Me To Love (Original 12 Mix)
TTITLE3=Mr Fingers - What About This Love (Extended Version)
TTITLE4=Frankie Knuckles - Its Hard Sometime (FK Classic Club)
TTITLE5=Brand New Heavies - Stay This Way (Heavy Mix)
TTITLE6=Neneh Cherry - Buffalo Stance (Baker Fast Pop Mix)
TTITLE7=NWA - Express Yourself (Album Version)
TTITLE8=A Tribe Called Quest - Can I Kick It (Extended Boilerhouse Mix
TTITLE8=)
TTITLE9=Sugarbear - Dont Scandalize Mine (Vocal Mix)
TTITLE10=Sister Sledge - Thinking Of You (Album Mix)
TTITLE11=Skipworth and Turner - Thinking About Your Love (Original 12 Mi
TTITLE11=x)
TTITLE12=Chicago - Street Player (Album Mix)
EXTD=
EXTT0=
EXTT1=
EXTT2=
EXTT3=
EXTT4=
EXTT5=
EXTT6=
EXTT7=
EXTT8=
EXTT9=
EXTT10=
EXTT11=
EXTT12=
PLAYORDER=
